<?xml version="1.0" standalone="no"?><!DOCTYPE svg PUBLIC "-//W3C//DTD SVG 1.1//EN" "http://www.w3.org/Graphics/SVG/1.1/DTD/svg11.dtd"><svg t="1708855270884" class="icon" viewBox="0 0 1024 1024" version="1.1" xmlns="http://www.w3.org/2000/svg" p-id="17043" xmlns:xlink="http://www.w3.org/1999/xlink" width="200" height="200"><path d="M30.117647 240.865233h963.460932v120.432617H30.117647z" fill="#0082FF" p-id="17044"></path><path d="M768.188938 897.885373a34.74481 34.74481 0 0 0-14.0304 13.36802c-1.866706 3.010815-1.445191 1.204326-1.445192-8.008769v-2.047354c7.165741-0.843028 12.043262-1.926922 15.475592-3.311897zM752.713346 361.29785h120.432617V903.244624c0 133.078041-107.787192 120.432617-240.865233 120.432617H391.415497c-133.078041 0-240.865233 12.645425-240.865233-120.432617V361.29785h120.432616v539.89942c15.596024 1.866706 41.970767 2.589301 88.277108 2.228003L391.415497 903.244624h240.865233c9.273311 0 16.860566 0 32.155508 0.180649 46.306341 0.361298 72.681084-0.361298 88.277108-2.228003V361.29785zM270.98288 903.244624c0 9.213095 0.421514 11.079801-1.445191 8.008769a37.876058 37.876058 0 0 0-12.043262-12.344343c2.047354 0.48173 6.744227 1.505408 13.488453 2.28822V903.244624z m0 0c0 9.213095 0.421514 11.079801-1.445191 8.008769a34.74481 34.74481 0 0 0-14.0304-13.36802c3.43233 1.384975 8.309851 2.468869 15.475591 3.311897V903.244624z m88.277108 0.180649L391.415497 903.244624h240.865233c9.273311 0 16.860566 0 32.155508 0.180649 46.306341 0.361298 72.681084-0.361298 88.277108-2.228003V361.29785h120.432617V903.244624c0 133.078041-107.787192 120.432617-240.865233 120.432617H391.415497c-133.078041 0-240.865233 12.645425-240.865233-120.432617V361.29785h120.432616v539.89942c15.596024 1.866706 41.970767 2.589301 88.277108 2.228003z m408.26657-5.299035a38.418005 38.418005 0 0 0-13.36802 13.127155c-1.866706 3.010815-1.445191 1.204326-1.445192-8.008769v-2.047354c6.744227-0.782812 11.441099-1.806489 14.813212-3.010816z" fill="#0082FF" p-id="17045"></path><path d="M331.199188 0h361.29785v120.432617H331.199188zM331.199188 481.730466h120.432617v301.081542H331.199188zM572.064421 481.730466h120.432617v301.081542H572.064421z" fill="#0082FF" p-id="17046"></path></svg>