<?xml version="1.0" standalone="no"?><!DOCTYPE svg PUBLIC "-//W3C//DTD SVG 1.1//EN" "http://www.w3.org/Graphics/SVG/1.1/DTD/svg11.dtd"><svg class="icon" width="200px" height="200.00px" viewBox="0 0 1024 1024" version="1.1" xmlns="http://www.w3.org/2000/svg"><path fill="#1296db" d="M45.112889 533.105778A485.262222 485.262222 0 0 1 530.147556 48.071111a485.262222 485.262222 0 0 1 485.091555 485.034667 485.262222 485.262222 0 0 1-485.091555 485.091555C262.428444 1018.197333 45.112889 797.013333 45.112889 533.048889z m38.798222 0c0 244.508444 201.784889 446.293333 446.236445 446.293333 244.508444 0 446.293333-201.784889 446.293333-446.293333 0-244.451556-201.784889-446.236444-446.293333-446.236445-244.451556 0-446.236444 197.916444-446.236445 446.236445z"  /><path fill="#1296db" d="M693.987556 577.991111c-69.404444-77.539556-191.829333-118.328889-367.274667-118.328889v40.789334c159.118222 0 273.408 36.750222 334.620444 102.058666 53.020444 61.212444 48.924444 122.424889 48.924445 126.464l44.942222 4.096c0-4.096 8.135111-81.635556-61.212444-155.079111z"  /><path fill="#1296db" d="M436.906667 622.933333l28.558222-28.615111-114.289778-106.097778c-4.039111-4.039111-4.039111-12.231111 0-20.366222L481.848889 365.795556l-24.462222-32.597334-130.616889 106.097778c-24.462222 20.366222-24.462222 53.020444-8.192 77.482667l118.328889 106.097777z"  /></svg>