<?xml version="1.0" standalone="no"?><!DOCTYPE svg PUBLIC "-//W3C//DTD SVG 1.1//EN" "http://www.w3.org/Graphics/SVG/1.1/DTD/svg11.dtd"><svg class="icon" width="200px" height="200.00px" viewBox="0 0 1024 1024" version="1.1" xmlns="http://www.w3.org/2000/svg"><path fill="#1296db" d="M995.157333 533.105778A485.262222 485.262222 0 0 0 510.122667 48.071111 485.262222 485.262222 0 0 0 25.031111 533.105778a485.262222 485.262222 0 0 0 485.091556 485.091555c267.719111 0 485.034667-221.184 485.034666-485.091555z m-38.798222 0c0 244.508444-201.784889 446.293333-446.236444 446.293333-244.451556 0-446.236444-201.784889-446.236445-446.293333 0-244.451556 201.784889-446.236444 446.236445-446.236445 244.451556 0 446.236444 197.916444 446.236444 446.236445z"  /><path fill="#1296db" d="M285.127111 733.070222c0-4.096-8.192-81.635556 61.212445-155.079111 69.347556-77.539556 191.715556-118.328889 367.217777-118.328889v40.789334c-159.118222 0-273.408 36.750222-334.620444 102.058666-53.020444 61.212444-48.924444 122.424889-48.924445 126.464l-44.942222 4.096z"  /><path fill="#1296db" d="M603.420444 622.933333l-28.615111-28.615111 114.289778-106.097778c4.096-4.039111 4.096-12.231111 0-20.366222L558.535111 365.795556l24.462222-32.597334 130.56 106.097778c24.462222 20.366222 24.462222 53.020444 8.192 77.482667l-118.328889 106.097777z"  /></svg>